<?xml version="1.0" standalone="no"?>

<svg version="1.0" xmlns="http://www.w3.org/2000/svg"
 width="96.000000pt" height="96.000000pt" viewBox="0 0 96.000000 96.000000"
 preserveAspectRatio="xMidYMid meet">

<g transform="translate(0.000000,96.000000) scale(0.100000,-0.100000)"
fill="#FFFFFF" stroke="none">
<path d="M241 814 c-21 -17 -36 -44 -47 -80 -14 -49 -18 -54 -45 -54 -26 0
-29 -3 -29 -30 0 -23 4 -30 20 -30 25 0 25 -14 0 -48 -19 -26 -20 -40 -18
-227 l3 -200 50 -3 c54 -4 75 12 75 55 0 22 2 23 99 23 l99 0 4 60 c2 51 0 60
-14 60 -29 0 -48 12 -48 30 0 21 19 30 62 30 22 0 43 12 75 41 24 22 60 47 78
55 51 21 148 18 197 -6 23 -11 43 -18 46 -15 9 9 -9 74 -28 98 -25 32 -25 47
-1 47 10 0 21 7 25 15 10 26 -5 45 -34 45 -26 0 -30 5 -44 54 -11 36 -26 63
-47 80 l-31 26 -208 0 -208 0 -31 -26z m434 -55 c9 -9 22 -40 30 -70 26 -97
47 -89 -226 -89 l-241 0 6 38 c26 141 29 143 253 140 132 -3 165 -6 178 -19z"/>
<path d="M605 465 c-82 -44 -125 -115 -125 -205 0 -91 42 -160 124 -202 58
-29 166 -23 219 14 102 69 132 216 64 315 -41 61 -92 87 -177 91 -55 2 -83 -1
-105 -13z m113 -123 l3 -61 62 -3 c47 -2 62 -7 62 -18 0 -11 -15 -16 -62 -18
l-62 -3 -3 -61 c-2 -38 -8 -63 -15 -66 -10 -3 -13 14 -13 62 l0 65 -67 3 c-53
2 -68 6 -68 18 0 12 15 16 68 18 l67 3 0 65 c0 48 3 65 13 62 7 -3 13 -28 15
-66z"/>
</g>
</svg>
