<svg id="visual" viewBox="0 0 960 540" width="960" height="540" xmlns="http://www.w3.org/2000/svg" xmlns:xlink="http://www.w3.org/1999/xlink" version="1.1"><path d="M0 481L22.8 485C45.7 489 91.3 497 137 488.5C182.7 480 228.3 455 274 449.8C319.7 444.7 365.3 459.3 411.2 468.5C457 477.7 503 481.3 548.8 472.5C594.7 463.7 640.3 442.3 686 437.8C731.7 433.3 777.3 445.7 823 445.5C868.7 445.3 914.3 432.7 937.2 426.3L960 420L960 541L937.2 541C914.3 541 868.7 541 823 541C777.3 541 731.7 541 686 541C640.3 541 594.7 541 548.8 541C503 541 457 541 411.2 541C365.3 541 319.7 541 274 541C228.3 541 182.7 541 137 541C91.3 541 45.7 541 22.8 541L0 541Z" fill="#4B47C0" stroke-linecap="round" stroke-linejoin="miter"></path></svg>