<svg id="visual" viewBox="0 0 1080 1920" width="1080" height="1920" xmlns="http://www.w3.org/2000/svg" xmlns:xlink="http://www.w3.org/1999/xlink" version="1.1">

  <g transform="translate(1080, 0)"><path d="M0 648C-42.9 626.8 -85.9 605.5 -137.7 603.5C-189.6 601.4 -250.4 618.5 -281.2 583.8C-311.9 549.1 -312.5 462.6 -331.7 415.9C-350.9 369.3 -388.7 362.4 -436.3 347.9C-483.8 333.4 -541 311.2 -570.3 274.6C-599.6 238.1 -601 187.2 -609.3 139.1C-617.6 90.9 -632.8 45.5 -648 0L0 0Z" fill="#4B47C0"></path></g><g transform="translate(0, 1920)"><path d="M0 -648C44.9 -632.2 89.9 -616.5 139.5 -611.3C189.2 -606.1 243.5 -611.4 281.2 -583.8C318.8 -556.3 339.8 -495.8 352.3 -441.7C364.7 -387.6 368.7 -339.8 380.8 -303.6C392.8 -267.4 413 -242.8 455 -219.1C497 -195.4 560.8 -172.6 596.7 -136.2C632.5 -99.8 640.2 -49.9 648 0L0 0Z" fill="#4B47C0"></path></g></svg>
