<svg id="visual" viewBox="0 0 540 960" width="540" height="960" xmlns="http://www.w3.org/2000/svg" xmlns:xlink="http://www.w3.org/1999/xlink" version="1.1"><path d="M0 855L12.8 862.2C25.7 869.3 51.3 883.7 77 868.8C102.7 854 128.3 810 154 801C179.7 792 205.3 818 231.2 834C257 850 283 856 308.8 840.3C334.7 824.7 360.3 787.3 386 779.7C411.7 772 437.3 794 463 793.5C488.7 793 514.3 770 527.2 758.5L540 747L540 961L527.2 961C514.3 961 488.7 961 463 961C437.3 961 411.7 961 386 961C360.3 961 334.7 961 308.8 961C283 961 257 961 231.2 961C205.3 961 179.7 961 154 961C128.3 961 102.7 961 77 961C51.3 961 25.7 961 12.8 961L0 961Z" fill="#4B47C0" stroke-linecap="round" stroke-linejoin="miter"></path></svg>