<?xml version="1.0" ?>
<!-- Uploaded to: SVG Repo, www.svgrepo.com, Generator: SVG Repo Mixer Tools -->
<svg width="800px" height="800px" viewBox="0 0 64 64" xmlns="http://www.w3.org/2000/svg">
<defs>
<style>.cls-1{fill:none;stroke:#000000;stroke-linecap:round;stroke-linejoin:round;stroke-width:2px;}</style>
</defs>
<g id="meteor">
<circle class="cls-1" cx="12" cy="11" r="2"/>
<circle cx="23.0992" cy="11.5232" r="1.0691"/>
<circle cx="55.0992" cy="11.5232" r="1.0691"/>
<line class="cls-1" x1="44.5509" x2="47.5509" y1="50.0547" y2="53.0547"/>
<line class="cls-1" x1="47.5509" x2="44.5509" y1="50.0547" y2="53.0547"/>
<path class="cls-1" d="M61.1211,19.8789a2.9989,2.9989,0,0,0-4.2422,0L40.2264,36.5314a2.991,2.991,0,0,1-4.8253-.8957l-.0289-.0606a2.9285,2.9285,0,0,1,.6134-3.3185l6.07-6.07a3.044,3.044,0,0,0,.6419-3.5154,3.0083,3.0083,0,0,0-4.819-.7919l-6.1355,6.1355a2.9285,2.9285,0,0,1-3.3185.6134l-.0606-.0289a2.9911,2.9911,0,0,1-.8957-4.8254L38.056,13.1862a3.044,3.044,0,0,0,.6419-3.5154,3.0083,3.0083,0,0,0-4.819-.7919S10.5676,32.2424,10.446,32.4415A14.9975,14.9975,0,0,0,32.6066,52.6066L61.1211,24.1211A2.9989,2.9989,0,0,0,61.1211,19.8789Z"/>
<circle class="cls-1" cx="21.9999" cy="42" r="10"/>
<line class="cls-1" x1="26" x2="18" y1="37" y2="47"/>
<circle class="cls-1" cx="18.5" cy="38.5" r="1.5"/>
<circle class="cls-1" cx="25.5" cy="45.5" r="1.5"/>
<line class="cls-1" x1="46" x2="52.5" y1="21" y2="14.5"/>
<line class="cls-1" x1="44" x2="46" y1="18" y2="16"/>
<line class="cls-1" x1="50" x2="58.5" y1="44" y2="35.5"/>
<line class="cls-1" x1="12" x2="19.5" y1="22" y2="14.5"/>
</g>
</svg>